HIERARCHY
ROOT hip
{
	OFFSET 0.000000 0.000000 0.000000
	CHANNELS 6 Xposition Yposition Zposition Xrotation Zrotation Yrotation 
	JOINT abdomen
	{
		OFFSET 0.000000 3.422050 0.000000
		CHANNELS 3 Xrotation Zrotation Yrotation 
		JOINT chest
		{
			OFFSET 0.000000 8.486693 -0.684411
			CHANNELS 3 Xrotation Zrotation Yrotation 
			JOINT neck
			{
				OFFSET 0.000000 10.266162 -0.273764
				CHANNELS 3 Xrotation Zrotation Yrotation 
				JOINT head
				{
					OFFSET 0.000000 3.148285 0.000000
					CHANNELS 3 Xrotation Zrotation Yrotation 
					End Site
					{
						OFFSET 0.000000 3.148289 0.000000
					}
				}
			}
			JOINT lCollar
			{
				OFFSET 3.422053 6.707223 -0.821293
				CHANNELS 3 Yrotation Zrotation Xrotation 
				JOINT lShldr
				{
					OFFSET 3.285171 0.000000 0.000000
					CHANNELS 3 Zrotation Yrotation Xrotation 
					JOINT lForeArm
					{
						OFFSET 10.129278 0.000000 0.000000
						CHANNELS 3 Yrotation Zrotation Xrotation 
						JOINT lHand
						{
							OFFSET 8.486692 0.000000 0.000000
							CHANNELS 3 Zrotation Yrotation Xrotation 
							End Site
							{
								OFFSET 4.106464 0.000000 0.000000
							}
						}
					}
				}
			}
			JOINT rCollar
			{
				OFFSET -3.558935 6.707223 -0.821293
				CHANNELS 3 Yrotation Zrotation Xrotation 
				JOINT rShldr
				{
					OFFSET -3.148289 0.000000 0.000000
					CHANNELS 3 Zrotation Yrotation Xrotation 
					JOINT rForeArm
					{
						OFFSET -10.266159 0.000000 0.000000
						CHANNELS 3 Yrotation Zrotation Xrotation 
						JOINT rHand
						{
							OFFSET -8.349810 0.000000 0.000000
							CHANNELS 3 Zrotation Yrotation Xrotation 
							End Site
							{
								OFFSET -4.106464 0.000000 0.000000
							}
						}
					}
				}
			}
		}
	}
	JOINT lThigh
	{
		OFFSET 5.338403 -1.642589 1.368821
		CHANNELS 3 Xrotation Zrotation Yrotation 
		JOINT lShin
		{
			OFFSET -2.053232 -20.121670 0.000000
			CHANNELS 3 Xrotation Zrotation Yrotation 
			JOINT lFoot
			{
				OFFSET 0.000000 -19.300380 -1.231939
				CHANNELS 3 Xrotation Yrotation Zrotation 
				End Site
				{
					OFFSET 0.000000 -2.463878 4.653993
				}
			}
		}
	}
	JOINT rThigh
	{
		OFFSET -5.338403 -1.642589 1.368821
		CHANNELS 3 Xrotation Zrotation Yrotation 
		JOINT rShin
		{
			OFFSET 2.053232 -20.121670 0.000000
			CHANNELS 3 Xrotation Zrotation Yrotation 
			JOINT rFoot
			{
				OFFSET 0.000000 -19.300380 -1.231939
				CHANNELS 3 Xrotation Yrotation Zrotation 
				End Site
				{
					OFFSET 0.000000 -2.463878 4.653993
				}
			}
		}
	}
}
MOTION
Frames: 20
Frame Time: 0.033264
0.000000 43.528500 0.000000 0.000000 0.000000 0.000000 0.000000 0.000000 0.000000 0.000000 0.000000 0.000000 0.000000 0.000000 0.000000 0.000000 0.000000 0.000000 0.000000 0.000000 0.000000 0.000000 0.000000 0.000000 0.000000 0.000000 0.000000 0.000000 0.000000 0.000000 0.000000 0.000000 0.000000 0.000000 0.000000 0.000000 0.000000 0.000000 0.000000 0.000000 0.000000 0.000000 0.000000 0.000000 0.000000 0.000000 0.000000 0.000000 0.000000 0.000000 0.000000 0.000000 0.000000 0.000000 0.000000 0.000000 0.000000 0.000000 0.000000 0.000000 
0.000000 5.017570 0.000000 -90.001877 0.000000 0.000000 11.463467 -0.078090 -0.079888 12.137085 -0.283955 -0.752904 17.994812 0.000000 0.000000 8.991555 0.000000 0.000000 2.176947 -8.769329 6.416045 -68.585304 -25.359455 6.504519 -62.371990 -4.699949 -10.005982 -12.219243 3.444626 21.543201 -2.108716 8.743356 6.280169 68.641731 25.323793 6.649814 62.674294 4.613626 -10.096588 12.256003 -4.054134 22.022711 -0.909953 -2.003515 -10.922431 10.275868 1.813960 -0.316224 14.491217 13.441174 0.155675 -0.833255 1.997065 7.796722 10.263417 -2.493130 0.371363 14.768414 -10.438462 -0.451156 
0.000000 5.017570 0.000000 -90.001877 0.000000 0.000000 10.687270 -0.078219 -0.079933 13.352904 -0.284077 -0.753020 17.762930 -0.246850 -0.034174 8.850564 0.044936 0.052198 1.929199 -8.822673 6.048854 -68.211327 -25.355169 6.307349 -62.219563 -4.538404 -9.993265 -12.302060 2.532710 21.585184 -1.752280 8.986857 6.018927 68.222763 25.342451 6.426344 62.449738 4.420712 -10.077950 12.245657 -3.065956 22.210718 -0.909953 -2.003515 -10.922431 10.275868 1.813960 -0.316224 14.665648 13.198199 0.089183 -0.833255 1.997066 7.796722 10.263417 -2.493130 0.371363 14.768414 -10.438462 -0.451156 
0.000000 5.017570 0.000000 -90.001877 0.000000 0.000000 9.910502 -0.078348 -0.079976 14.570938 -0.284197 -0.753139 17.531057 -0.493982 -0.067369 8.709573 0.090014 0.104301 1.681022 -8.874452 5.681301 -67.837334 -25.349716 6.110194 -62.067181 -4.376815 -9.980979 -12.385582 1.619916 21.628506 -1.394381 9.228812 5.755907 67.803604 25.359636 6.202662 62.225300 4.227706 -10.060076 12.238552 -2.076521 22.398626 -0.909953 -2.003515 -10.922431 10.275869 1.813960 -0.316224 14.839636 12.955001 0.023507 -0.833255 1.997065 7.796722 10.263417 -2.493130 0.371363 14.768414 -10.438463 -0.451156 
0.000000 5.017570 0.000000 -90.001877 0.000000 0.000000 9.133232 -0.078479 -0.080017 15.790915 -0.284314 -0.753261 17.299179 -0.741387 -0.099584 8.568577 0.135234 0.156309 1.432434 -8.924665 5.313406 -67.463341 -25.343107 5.913071 -61.914867 -4.215185 -9.969128 -12.469843 0.706363 21.673183 -1.035025 9.469193 5.491111 67.384239 25.375341 5.978777 62.000912 4.034613 -10.042956 12.234698 -1.085994 22.586538 -0.909953 -2.003515 -10.922431 10.275868 1.813960 -0.316224 15.013185 12.711586 -0.041353 -0.833255 1.997066 7.796723 10.263417 -2.493130 0.371363 14.768414 -10.438463 -0.451156 
0.000000 5.017570 0.000000 -90.001877 0.000000 0.000000 8.355532 -0.078610 -0.080057 17.012562 -0.284429 -0.753386 17.067305 -0.989058 -0.130816 8.427583 0.180595 0.208222 1.183452 -8.973310 4.945189 -67.089355 -25.335331 5.715987 -61.762592 -4.053517 -9.957705 -12.554877 -0.207830 21.719238 -0.674218 9.707976 5.224548 66.964699 25.389565 5.754714 61.776649 3.841439 -10.026602 12.234091 -0.094535 22.774519 -0.909953 -2.003515 -10.922431 10.275868 1.813960 -0.316224 15.186299 12.467961 -0.105401 -0.833255 1.997065 7.796722 10.263417 -2.493130 0.371363 14.768413 -10.438462 -0.451156 
0.000000 5.017570 0.000000 -90.001877 0.000000 0.000000 7.577471 -0.078741 -0.080095 18.235598 -0.284541 -0.753512 16.835417 -1.236986 -0.161063 8.286585 0.226098 0.260038 0.934093 -9.020377 4.576662 -66.715393 -25.326389 5.518962 -61.610390 -3.891815 -9.946720 -12.640717 -1.122544 21.766685 -0.311964 9.945142 4.956228 66.545013 25.402313 5.530490 61.552464 3.648189 -10.011005 12.236741 0.897692 22.962654 -0.909953 -2.003515 -10.922431 10.275868 1.813960 -0.316224 15.358987 12.224133 -0.168640 -0.833255 1.997065 7.796722 10.263416 -2.493130 0.371363 14.768413 -10.438462 -0.451156 
0.000000 5.017570 0.000000 -90.001877 0.000000 0.000000 6.799126 -0.078873 -0.080131 19.459753 -0.284651 -0.753642 16.603516 -1.485164 -0.190325 8.145586 0.271742 0.311758 0.684375 -9.065863 4.207845 -66.341469 -25.316288 5.322008 -61.458248 -3.730078 -9.936164 -12.727400 -2.037657 21.815559 0.051730 10.180657 4.686155 66.125183 25.413568 5.306128 61.328377 3.454871 -9.996172 12.242658 1.890523 23.151039 -0.909953 -2.003515 -10.922431 10.275868 1.813960 -0.316224 15.531253 11.980106 -0.231074 -0.833255 1.997065 7.796722 10.263417 -2.493130 0.371363 14.768414 -10.438462 -0.451156 
0.000000 5.017570 0.000000 -90.001877 0.000000 0.000000 6.020564 -0.079006 -0.080165 20.684748 -0.284758 -0.753774 16.371593 -1.733581 -0.218598 8.004588 0.317526 0.363380 0.434314 -9.109765 3.838757 -65.967598 -25.305025 5.125135 -61.306145 -3.568309 -9.926041 -12.814956 -2.953049 21.865862 0.416857 10.414499 4.414338 65.705254 25.423347 5.081647 61.104382 3.261490 -9.982099 12.251851 2.883793 23.339746 -0.909953 -2.003515 -10.922431 10.275868 1.813960 -0.316224 15.703100 11.735890 -0.292704 -0.833255 1.997065 7.796722 10.263417 -2.493130 0.371363 14.768414 -10.438462 -0.451156 
0.000000 5.017570 0.000000 -90.001877 0.000000 0.000000 5.241858 -0.079139 -0.080198 21.910307 -0.284862 -0.753908 16.139656 -1.982231 -0.245883 7.863587 0.363450 0.414905 0.183929 -9.152077 3.469414 -65.593811 -25.292603 4.928362 -61.154099 -3.406513 -9.916348 -12.903425 -3.868600 21.917637 0.783410 10.646646 4.140786 65.285240 25.431641 4.857065 60.880455 3.068047 -9.968781 12.264335 3.877336 23.528864 -0.909953 -2.003515 -10.922431 10.275868 1.813960 -0.316224 15.874530 11.491485 -0.353535 -0.833255 1.997065 7.796723 10.263417 -2.493130 0.371363 14.768416 -10.438463 -0.451156 
0.000000 5.017570 0.000000 -90.001877 0.000000 0.000000 4.463081 -0.079272 -0.080228 23.136145 -0.284964 -0.754044 15.907690 -2.231106 -0.272176 7.722590 0.409514 0.466331 -0.066763 -9.192794 3.099834 -65.220078 -25.279013 4.731699 -61.002106 -3.244691 -9.907089 -12.992840 -4.784186 21.970892 1.151381 10.877074 3.865508 64.865143 25.438444 4.632402 60.656616 2.874554 -9.956227 12.280134 4.870988 23.718487 -0.909953 -2.003515 -10.922431 10.275869 1.813960 -0.316224 16.045553 11.246900 -0.413568 -0.833255 1.997066 7.796722 10.263417 -2.493130 0.371363 14.768414 -10.438463 -0.451156 
0.000000 5.017570 0.000000 -90.001862 0.000000 0.000000 3.684301 -0.079406 -0.080257 24.361984 -0.285062 -0.754182 15.675689 -2.480196 -0.297476 7.581592 0.455717 0.517658 -0.317744 -9.231912 2.730035 -64.846466 -25.264265 4.535165 -60.850178 -3.082844 -9.898263 -13.083243 -5.699690 22.025667 1.520763 11.105753 3.588512 64.445015 25.443764 4.407680 60.432854 2.681011 -9.944430 12.299262 5.864582 23.908691 -0.909953 -2.003515 -10.922430 10.275867 1.813960 -0.316224 16.216171 11.002141 -0.472807 -0.833255 1.997065 7.796722 10.263416 -2.493130 0.371363 14.768413 -10.438462 -0.451156 
0.000000 5.017570 0.000000 -90.001877 0.000000 0.000000 2.905596 -0.079540 -0.080284 25.587542 -0.285157 -0.754323 15.443657 -2.729494 -0.321782 7.440599 0.502059 0.568886 -0.568997 -9.269432 2.360037 -64.472954 -25.248363 4.338766 -60.698273 -2.920976 -9.889865 -13.174673 -6.614986 22.081980 1.891547 11.332667 3.309811 64.024857 25.447582 4.182918 60.209164 2.487428 -9.933391 12.321745 6.857952 24.099566 -0.909953 -2.003515 -10.922431 10.275867 1.813960 -0.316224 16.386387 10.757213 -0.531254 -0.833255 1.997065 7.796722 10.263415 -2.493130 0.371363 14.768414 -10.438462 -0.451156 
0.000000 5.017570 0.000000 -90.001877 0.000000 0.000000 2.127034 -0.079675 -0.080309 26.812540 -0.285250 -0.754466 15.211581 -2.978991 -0.345091 7.299605 0.548540 0.620014 -0.820503 -9.305344 1.989854 -64.099579 -25.231302 4.142523 -60.546432 -2.759089 -9.881899 -13.267167 -7.529957 22.139870 2.263724 11.557789 3.029413 63.604675 25.449924 3.958131 59.985542 2.293808 -9.923109 12.347610 7.850935 24.291203 -0.909953 -2.003515 -10.922431 10.275868 1.813960 -0.316224 16.556210 10.512121 -0.588913 -0.833255 1.997065 7.796722 10.263417 -2.493130 0.371363 14.768414 -10.438462 -0.451156 
0.000000 5.017570 0.000000 -90.001877 0.000000 0.000000 1.348688 -0.079810 -0.080333 28.036692 -0.285339 -0.754610 14.979465 -3.228678 -0.367402 7.158616 0.595159 0.671042 -1.072244 -9.339652 1.619509 -63.726330 -25.213085 3.946440 -60.394630 -2.597185 -9.874365 -13.360766 -8.444477 22.199352 2.637284 11.781093 2.747330 63.184525 25.450773 3.733348 59.762005 2.100156 -9.913586 12.376885 8.843358 24.483690 -0.909953 -2.003515 -10.922431 10.275868 1.813960 -0.316224 16.725639 10.266874 -0.645786 -0.833255 1.997065 7.796723 10.263417 -2.493130 0.371363 14.768414 -10.438462 -0.451156 
0.000000 5.017570 0.000000 -90.001877 0.000000 0.000000 0.570629 -0.079945 -0.080354 29.259739 -0.285425 -0.754756 14.747299 -3.478549 -0.388712 7.017627 0.641916 0.721969 -1.324203 -9.372348 1.249016 -63.353249 -25.193718 3.750541 -60.242870 -2.435266 -9.867258 -13.455511 -9.358426 22.260462 3.012217 12.002555 2.463573 62.764412 25.450136 3.508580 59.538540 1.906480 -9.904821 12.409610 9.835065 24.677120 -0.909953 -2.003515 -10.922431 10.275868 1.813960 -0.316224 16.894684 10.021475 -0.701874 -0.833255 1.997065 7.796722 10.263417 -2.493130 0.371363 14.768414 -10.438462 -0.451156 
0.000000 5.017570 0.000000 -90.001877 0.000000 0.000000 -0.207071 -0.080081 -0.080374 30.481382 -0.285508 -0.754904 14.515079 -3.728594 -0.409021 6.876641 0.688810 0.772794 -1.576361 -9.403432 0.878396 -62.980316 -25.173189 3.554832 -60.091160 -2.273335 -9.860583 -13.551448 -10.271687 22.323246 3.388511 12.222154 2.178154 62.344357 25.448011 3.283854 59.315140 1.712784 -9.896813 12.445815 10.825884 24.871592 -0.909953 -2.003515 -10.922431 10.275869 1.813960 -0.316224 17.063349 9.775934 -0.757183 -0.833255 1.997065 7.796722 10.263417 -2.493130 0.371363 14.768414 -10.438462 -0.451156 
0.000000 5.017570 0.000000 -90.001862 0.000000 0.000000 -0.984341 -0.080216 -0.080392 31.701353 -0.285587 -0.755053 14.282798 -3.978802 -0.428327 6.735662 0.735841 0.823517 -1.828701 -9.432899 0.507667 -62.607586 -25.151525 3.359331 -59.939487 -2.111395 -9.854340 -13.648619 -11.184134 22.387720 3.766158 12.439870 1.891085 61.924374 25.444397 3.059183 59.091812 1.519074 -9.889563 12.485541 11.815653 25.067186 -0.909953 -2.003515 -10.922430 10.275867 1.813960 -0.316224 17.231640 9.530252 -0.811715 -0.833255 1.997065 7.796722 10.263416 -2.493130 0.371363 14.768414 -10.438461 -0.451156 
0.000000 5.017570 0.000000 -90.001862 0.000000 0.000000 -1.761109 -0.080352 -0.080408 32.919384 -0.285663 -0.755203 14.050454 -4.229168 -0.446626 6.594687 0.783009 0.874138 -2.081203 -9.460753 0.136846 -62.235058 -25.128706 3.164050 -59.787857 -1.949446 -9.848525 -13.747070 -12.095652 22.453932 4.145144 12.655676 1.602381 61.504494 25.439299 2.834594 58.868542 1.325354 -9.883068 12.528835 12.804209 25.264015 -0.909953 -2.003515 -10.922430 10.275868 1.813960 -0.316224 17.399553 9.284436 -0.865470 -0.833255 1.997065 7.796722 10.263416 -2.493130 0.371363 14.768414 -10.438462 -0.451156 
0.000000 5.017570 0.000000 -90.001862 0.000000 0.000000 -2.537306 -0.080488 -0.080422 34.135204 -0.285736 -0.755355 13.818045 -4.479684 -0.463919 6.453716 0.830313 0.924656 -2.333849 -9.486986 -0.234047 -61.862740 -25.104744 2.969001 -59.636269 -1.787492 -9.843141 -13.846848 -13.006117 22.521914 4.525458 12.869552 1.312053 61.084724 25.432713 2.610101 58.645329 1.131632 -9.877331 12.575739 13.791385 25.462164 -0.909953 -2.003515 -10.922431 10.275867 1.813960 -0.316224 17.567101 9.038493 -0.918453 -0.833255 1.997065 7.796722 10.263417 -2.493130 0.371363 14.768414 -10.438462 -0.451156 
